#!OML:ASF H:\Terrain\Patient Classification 1\Walking\liu\liu.ASF
:FULLY-SPECIFIED
:DEGREES
33
root 8.23352 15.6531 -30.3311 7.95893 -7.45364 -5.85441
lowerback -3.0236 3.45478 2.50209
upperback -0.946907 4.49777 3.86064
thorax 0.599773 2.25228 2.72131
lowerneck -26.6581 -2.87524 -12.2152
upperneck 23.7148 -0.930984 6.51751
head 12.3695 -0.64758 4.36507
rclavicle -1.37161e-014 -6.36111e-015
rhumerus -22.4745 28.7743 -85.9432
rradius 49.047
rwrist -18.1401
rhand -27.6066 -15.4215
rfingers 7.12502
rthumb -1.00595 -45.3988
lclavicle -1.37161e-014 -6.36111e-015
lhumerus -56.5342 1.40724 86.7706
lradius 16.0823
lwrist -13.4891
lhand -5.55582 -26.4005
lfingers 7.12502
lthumb 20.2593 2.56298
rfemur 17.5779 1.44975 27.3739
rtibia 18.2744
rfoot 14.4892 -0.301045
rtoes 0.481601
lfemur -44.2858 4.26849 -17.3748
ltibia 30.8675
lfoot -1.42998 6.56774
ltoes -11.8183
34
root 8.23864 15.6529 -30.0351 7.50494 -7.27238 -4.36832
lowerback -2.85108 3.26996 0.93169
upperback -0.918374 4.30876 3.46442
thorax 0.453509 2.16069 3.16834
lowerneck -26.5257 -2.88982 -12.3354
upperneck 23.7207 -0.959808 6.64992
head 12.3512 -0.654822 4.43102
rclavicle 3.68249e-014 -8.74653e-015
rhumerus -22.9882 28.0301 -86.21
rradius 49.3183
rwrist -18.3467
rhand -28.6923 -15.2753
rfingers 7.12502
rthumb -2.05455 -45.2451
lclavicle 3.68249e-014 -8.74653e-015
lhumerus -56.4779 2.26987 85.7206
lradius 15.4634
lwrist -15.1528
lhand -5.16301 -26.7807
lfingers 7.12502
lthumb 20.6368 2.14225
rfemur 15.6408 0.472505 25.3169
rtibia 23.786
rfoot 14.7253 1.23988
rtoes -2.22933
lfemur -43.7392 4.0466 -19.1563
ltibia 32.4742
lfoot -1.47896 7.01464
ltoes -11.3826
35
root 8.24512 15.6576 -29.74 7.12216 -7.03128 -3.32231
lowerback -2.69314 3.08003 -0.209204
upperback -0.887668 4.09252 3.20135
thorax 0.346512 2.05522 3.51874
lowerneck -26.4789 -2.77113 -12.1258
upperneck 23.7571 -0.913745 6.74181
head 12.3486 -0.60334 4.4417
rclavicle 1.49585e-014 9.54166e-015
rhumerus -23.5786 27.4993 -86.4731
rradius 49.5818
rwrist -19.0062
rhand -26.2899 -12.6196
rfingers 7.12502
rthumb 0.265732 -42.5992
lclavicle 1.49585e-014 9.54166e-015
lhumerus -56.3034 3.3231 84.4867
lradius 14.7382
lwrist -16.9971
lhand -4.77119 -27.2886
lfingers 7.12502
lthumb 21.0132 1.59296
rfemur 13.6385 -0.457821 23.7564
rtibia 29.1809
rfoot 14.9716 3.97986
rtoes -11.4145
lfemur -43.2275 3.83698 -20.4418
ltibia 33.865
lfoot -1.61418 6.9575
ltoes -10.1136
36
root 8.24998 15.6624 -29.4443 6.79132 -6.96945 -2.56478
lowerback -2.52821 3.04416 -1.0617
upperback -0.840927 4.06948 2.95865
thorax 0.261881 2.04575 3.73589
lowerneck -26.6922 -2.81987 -11.926
upperneck 23.944 -1.05762 6.79734
head 12.4778 -0.643903 4.41445
rclavicle -6.40087e-014 -3.02153e-014
rhumerus -24.2462 26.832 -86.7253
rradius 49.8339
rwrist -19.9359
rhand -30.4865 -16.9691
rfingers 7.12502
rthumb -3.78731 -46.9152
lclavicle -6.40087e-014 -3.02153e-014
lhumerus -55.8736 4.11625 83.2179
lradius 13.9637
lwrist -19.2295
lhand -4.40564 -27.8991
lfingers 7.12502
lthumb 21.3644 0.94312
rfemur 11.6371 -1.07661 22.5113
rtibia 34.3908
rfoot 18.4004 1.04385
rtoes -6.34301
lfemur -42.6056 4.06609 -21.5579
ltibia 34.9325
lfoot -1.95924 6.17195
ltoes -7.16545
37
root 8.25485 15.6692 -29.149 6.48751 -7.00009 -1.74396
lowerback -2.52423 3.00381 -1.89933
upperback -0.720725 4.03678 2.67947
thorax 0.34752 2.02757 3.9202
lowerneck -26.8471 -2.89442 -11.9753
upperneck 24.0109 -1.14759 6.87848
head 12.5451 -0.677502 4.44298
rclavicle -8.32411e-015 2.62396e-014
rhumerus -24.86 26.2012 -87.0194
rradius 50.0609
rwrist -20.6828
rhand -30.9278 -19.4393
rfingers 7.12502
rthumb -4.21342 -49.3774
lclavicle -8.32411e-015 2.62396e-014
lhumerus -55.3534 4.19438 82.8665
lradius 13.6451
lwrist -20.2836
lhand -4.358 -27.6908
lfingers 7.12502
lthumb 21.4101 1.14623
rfemur 9.69691 -1.61681 21.2501
rtibia 39.3777
rfoot 19.8083 -0.000704289
rtoes -6.46046
lfemur -41.7421 4.47369 -22.7882
ltibia 35.6455
lfoot -2.44402 5.14799
ltoes -3.3683
38
root 8.26422 15.6956 -28.8594 6.08162 -6.96155 -0.84357
lowerback -2.40797 2.87049 -2.79137
upperback -0.573126 3.88032 2.45131
thorax 0.403193 1.94636 4.18035
lowerneck -26.6248 -2.95821 -12.3839
upperneck 23.7405 -1.182 7.17967
head 12.4044 -0.684274 4.61155
rclavicle -8.94531e-015 2.14687e-014
rhumerus -25.4689 25.8624 -87.2864
rradius 50.246
rwrist -21.4926
rhand -32.4459 -19.6736
rfingers 7.12502
rthumb -5.67929 -49.5774
lclavicle -8.94531e-015 2.14687e-014
lhumerus -54.9835 4.07484 83.1509
lradius 13.6098
lwrist -20.2144
lhand -4.32054 -27.5151
lfingers 7.12502
lthumb 21.4461 1.31782
rfemur 7.81359 -2.22066 20.0026
rtibia 44.1396
rfoot 21.1758 -1.57174
rtoes -8.43459
lfemur -40.473 4.57248 -23.9568
ltibia 36.0749
lfoot -3.16741 4.70111
ltoes -1.12418
39
root 8.27387 15.7248 -28.58 5.61296 -6.9318 0.140307
lowerback -2.1059 2.71419 -3.79551
upperback -0.383702 3.68976 2.16377
thorax 0.401893 1.84709 4.43348
lowerneck -26.7434 -2.91941 -12.3121
upperneck 23.5932 -1.14348 7.20007
head 12.363 -0.651963 4.61019
rclavicle -2.83268e-014 -2.10712e-014
rhumerus -25.7209 25.6925 -87.6323
rradius 50.0482
rwrist -22.4296
rhand -33.1566 -15.8225
rfingers 7.12502
rthumb -6.36541 -45.7069
lclavicle -2.83268e-014 -2.10712e-014
lhumerus -54.3979 4.11085 83.2559
lradius 13.4867
lwrist -19.9598
lhand -11.8065 -32.4133
lfingers 7.12502
lthumb 14.2435 -2.92178
rfemur 5.97417 -2.7935 18.77
rtibia 48.6597
rfoot 21.9127 -4.00861
rtoes -11.6834
lfemur -38.9754 4.59398 -25.1617
ltibia 36.2511
lfoot -4.11352 4.57882
ltoes -0.877843
